PathFileType	4	(X/Y/Z)	./resultDataOpenSim/trcMotMarkerGrf/sub06/qtm-02-06.trc
DataRate	CameraRate	NumFrames	NumMarkers	Units	OrigDataRate	OrigDataStartFrame	OrigNumFrames
250.000000	250.000000	8	24	m	250.000000	125	497
Frame#	Time	L.Toe.Tip			R.Toe.Tip			L.Ankle.Lat			R.Ankle.Lat			L.Ankle.Med			R.Ankle.Med			L.Heel			R.Heel			L.Knee.Lat			R.Knee.Lat			L.Knee.Med			R.Knee.Med			L.Thigh.Upper			R.Thigh.Upper			L.ASIS			R.ASIS			V.Sacral			L.Acromium			R.Acromium			C7			L.Elbow			R.Elbow			L.Wrist.Lat			R.Wrist.Lat
		X1	Y1	Z1	X2	Y2	Z2	X3	Y3	Z3	X4	Y4	Z4	X5	Y5	Z5	X6	Y6	Z6	X7	Y7	Z7	X8	Y8	Z8	X9	Y9	Z9	X10	Y10	Z10	X11	Y11	Z11	X12	Y12	Z12	X13	Y13	Z13	X14	Y14	Z14	X15	Y15	Z15	X16	Y16	Z16	X17	Y17	Z17	X18	Y18	Z18	X19	Y19	Z19	X20	Y20	Z20	X21	Y21	Z21	X22	Y22	Z22	X23	Y23	Z23	X24	Y24	Z24

125	0.496	-0.13362246	0.11782067	-0.052514978	-0.76753907	0.035135447	0.090849077	-0.26094717	0.10196013	-0.074750831	-0.9001371	0.066454209	0.10599136	-0.26551015	0.11909702	0.0092706719	-0.8742723	0.084392466	0.020771832	-0.31364108	0.045115824	-0.026205203	-0.95483142	0.047269133	0.041290798	-0.3780505	0.45176342	-0.083998078	-0.73701769	0.42157637	0.14472831	-0.39326349	0.44052424	0.040573427	-0.76148528	0.42376633	0.013146174	-0.57556805	0.78981843	-0.13626939	-0.64983042	0.77520159	0.20943715	-0.51781138	0.83488622	-0.079649011	-0.53651515	0.82272849	0.16724802	-0.71021756	0.90113823	0.035334739	-0.60386001	1.3165716	-0.1385711	-0.59100684	1.2971772	0.22255446	-0.67495855	1.3432568	0.046035388	-0.69644064	1.0160887	-0.19256907	-0.63668659	0.98815106	0.32549323	-0.58728182	0.800032	-0.2378119	-0.40699061	0.88510665	0.31137759
126	0.5	-0.12157645	0.12011747	-0.051627927	-0.76739315	0.035136278	0.090849645	-0.2486199	0.10254735	-0.074079958	-0.89975839	0.066978453	0.10563297	-0.25378976	0.11915776	0.0099735733	-0.87350739	0.084608601	0.020399446	-0.3007382	0.04465483	-0.026023863	-0.95448565	0.048053095	0.040779145	-0.37038761	0.45007437	-0.08275848	-0.73265196	0.42028633	0.14447548	-0.38619317	0.43882877	0.04178572	-0.75654888	0.42269431	0.012931794	-0.56811588	0.78696426	-0.13611522	-0.64435872	0.77342103	0.20903727	-0.5105449	0.83228295	-0.079341963	-0.53041915	0.82066271	0.16773266	-0.70345616	0.89914139	0.03472436	-0.5975627	1.3142448	-0.13873691	-0.58484076	1.2949538	0.22261536	-0.66872912	1.3411818	0.045958384	-0.69034539	1.0138998	-0.19244045	-0.62958466	0.98581954	0.32590826	-0.58230605	0.79752586	-0.2384362	-0.39943711	0.88400989	0.31115984
127	0.504	-0.11004739	0.12208397	-0.050734544	-0.7672185	0.035155013	0.09083973	-0.23679359	0.10293184	-0.073289516	-0.89929391	0.067564448	0.1053043	-0.2424702	0.1191404	0.010772847	-0.8727257	0.084890029	0.020057437	-0.28835223	0.044107141	-0.025591123	-0.95411517	0.048933052	0.040242113	-0.3625679	0.44849042	-0.081573328	-0.72822511	0.41898961	0.14426904	-0.37920169	0.43722427	0.042904579	-0.75154194	0.42161033	0.012723735	-0.56054489	0.7841773	-0.13596449	-0.63919311	0.77221248	0.20921361	-0.50322541	0.82964985	-0.079013587	-0.52440161	0.81860806	0.16831826	-0.69671612	0.89721564	0.034162664	-0.59124447	1.3119163	-0.13892322	-0.57868946	1.292737	0.22266351	-0.66252541	1.3391251	0.045857355	-0.68422933	1.0116678	-0.19235811	-0.62249676	0.9834891	0.32629201	-0.57694177	0.79496674	-0.23884963	-0.39192391	0.88282243	0.31095382
128	0.508	-0.099027453	0.12368335	-0.049830621	-0.76704942	0.035173403	0.090826995	-0.22549087	0.10307421	-0.072398221	-0.89880776	0.068209218	0.1050034	-0.23153724	0.11904025	0.011688433	-0.87193851	0.085241597	0.01974345	-0.27643591	0.043424588	-0.024853266	-0.95372308	0.04991877	0.039716584	-0.35465275	0.44701148	-0.080454598	-0.72375675	0.4176916	0.14411657	-0.37226268	0.43567919	0.043933452	-0.74648307	0.42051327	0.012507526	-0.55285062	0.78148935	-0.13580842	-0.63421953	0.771303	0.20974712	-0.49587679	0.82699713	-0.078664664	-0.51839335	0.81656695	0.16893286	-0.68995319	0.8953158	0.033630569	-0.5848888	1.3095898	-0.13912246	-0.57255235	1.2905346	0.22269592	-0.65632143	1.3371086	0.045706238	-0.678017	1.009387	-0.19229159	-0.61541793	0.98117785	0.32663197	-0.5715952	0.79232862	-0.23923293	-0.38445769	0.88155407	0.31074855
129	0.512	-0.088501676	0.12488589	-0.048906774	-0.76690506	0.035193394	0.090824714	-0.21470776	0.10295128	-0.071419469	-0.89832499	0.068920986	0.10474128	-0.2209776	0.11884011	0.012725797	-0.87114942	0.085671664	0.0194524	-0.26499505	0.042582062	-0.023825392	-0.95332234	0.05102361	0.039264208	-0.34682406	0.44559675	-0.079441441	-0.7192662	0.41639968	0.14400369	-0.36533293	0.43415192	0.044870038	-0.74137729	0.41939678	0.012290316	-0.54508875	0.77891159	-0.13561887	-0.62918963	0.7703655	0.21033514	-0.48851259	0.8243434	-0.078294228	-0.51232069	0.81453458	0.16949331	-0.68313638	0.8934078	0.033124323	-0.57848349	1.3072683	-0.13933114	-0.56641972	1.2883551	0.22270639	-0.65002007	1.3351329	0.045463683	-0.67168742	1.0070938	-0.19220279	-0.60834357	0.97889785	0.32691774	-0.56658965	0.78964756	-0.23976542	-0.37705734	0.88021876	0.3105337
130	0.516	-0.078454407	0.12566356	-0.047949515	-0.7667901	0.035207037	0.090840944	-0.20441997	0.10255439	-0.070366435	-0.89783528	0.069711324	0.10453659	-0.21082174	0.11849495	0.013846817	-0.87035264	0.086194029	0.019183886	-0.25407447	0.041577535	-0.022589396	-0.95292298	0.052258846	0.03892458	-0.33915054	0.44419502	-0.078548274	-0.71474623	0.41512106	0.14391251	-0.35836101	0.43260307	0.045714379	-0.73621472	0.41825139	0.012088835	-0.53734746	0.77643616	-0.13536865	-0.62402005	0.76931664	0.21082434	-0.48110127	0.82170498	-0.077902728	-0.50619281	0.812497	0.16999023	-0.67625358	0.89148337	0.032653187	-0.57203023	1.304957	-0.13955152	-0.56028605	1.2862062	0.22268951	-0.64358337	1.3331733	0.04512907	-0.66525906	1.0048263	-0.19210787	-0.60127045	0.97664782	0.32715121	-0.56196372	0.78695905	-0.24049594	-0.36973428	0.87882241	0.31030165
131	0.52	-0.068868237	0.12599501	-0.046941616	-0.76670784	0.03518886	0.090879946	-0.19460127	0.10188364	-0.069252816	-0.89731184	0.070588717	0.10440222	-0.20113827	0.11793741	0.014983819	-0.86954227	0.086815002	0.018956453	-0.24371944	0.040418699	-0.021246512	-0.95251491	0.053635304	0.038688941	-0.33154146	0.44277102	-0.077754802	-0.71016858	0.41385946	0.14384125	-0.35129193	0.43101461	0.046476425	-0.73097335	0.41707302	0.011924957	-0.5296592	0.77405915	-0.13505496	-0.61868499	0.76812097	0.21115111	-0.47357647	0.81909186	-0.077491055	-0.50008853	0.81043132	0.17051448	-0.66930401	0.88955144	0.032222633	-0.56553949	1.3026597	-0.13978664	-0.55415125	1.2840939	0.22264144	-0.63711925	1.3312061	0.044762488	-0.65876161	1.0025981	-0.19204418	-0.59418946	0.97442011	0.32733769	-0.55754022	0.78427784	-0.24135829	-0.36244251	0.87735329	0.31002487
132	0.524	-0.059729052	0.12587617	-0.045868271	-0.76665672	0.035129951	0.090938681	-0.18524031	0.10094369	-0.068088855	-0.89674219	0.071549763	0.10433755	-0.19196557	0.11711861	0.016097766	-0.86870819	0.087524557	0.018800092	-0.23394718	0.039111715	-0.019863433	-0.9520688	0.055157378	0.038514613	-0.32390706	0.44130019	-0.077039	-0.70550783	0.41260931	0.14380057	-0.3440812	0.42939211	0.047168991	-0.72562146	0.41586597	0.011818594	-0.52199991	0.77178146	-0.13470489	-0.61317618	0.76674026	0.21131262	-0.46592276	0.81651503	-0.0770589	-0.49408191	0.80830906	0.1711974	-0.66229319	0.88762114	0.031826645	-0.55901732	1.3003775	-0.14004105	-0.54801179	1.2820238	0.22256119	-0.63074116	1.3292247	0.044416682	-0.65221056	1.000404	-0.19201874	-0.58709007	0.97221327	0.32747554	-0.5531098	0.78161163	-0.24225577	-0.35509366	0.8757907	0.30966427
